<svg width="48" height="48" viewBox="0 0 48 48" fill="none" xmlns="http://www.w3.org/2000/svg">
<path d="M24 25.309C27.1127 25.309 29.636 22.7857 29.636 19.673C29.636 16.5603 27.1127 14.037 24 14.037C20.8873 14.037 18.364 16.5603 18.364 19.673C18.364 22.7857 20.8873 25.309 24 25.309Z" stroke="#FBFADA" stroke-linecap="round" stroke-linejoin="round"/>
<path d="M30.481 38.172L28.823 43.5L27.164 38.172L25.505 43.5L23.846 38.172M32.304 43.05C32.671 43.359 33.068 43.5 33.958 43.5H34.409C34.5839 43.5 34.757 43.4655 34.9185 43.3986C35.08 43.3316 35.2267 43.2335 35.3502 43.1097C35.4737 42.986 35.5716 42.8392 35.6384 42.6776C35.7051 42.516 35.7393 42.3428 35.739 42.168C35.7393 41.9932 35.7051 41.82 35.6384 41.6584C35.5716 41.4968 35.4737 41.35 35.3502 41.2263C35.2267 41.1025 35.08 41.0044 34.9185 40.9374C34.757 40.8705 34.5839 40.836 34.409 40.836H33.507C33.3322 40.836 33.1591 40.8015 32.9976 40.7346C32.8361 40.6676 32.6894 40.5695 32.5659 40.4457C32.4423 40.322 32.3444 40.1752 32.2777 40.0136C32.211 39.852 32.1768 39.6788 32.177 39.504C32.1768 39.3292 32.211 39.156 32.2777 38.9944C32.3444 38.8328 32.4423 38.686 32.5659 38.5623C32.6894 38.4385 32.8361 38.3404 32.9976 38.2734C33.1591 38.2065 33.3322 38.172 33.507 38.172H33.957C34.848 38.172 35.244 38.312 35.611 38.622M22.055 42.485C21.8794 42.7933 21.6252 43.0497 21.3183 43.228C21.0115 43.4062 20.6629 43.5001 20.308 43.5C19.198 43.5 18.298 42.6 18.298 41.49V40.182C18.298 39.072 19.198 38.172 20.308 38.172C21.418 38.172 22.319 39.072 22.319 40.182V40.836H18.298M16.283 43.5V40.182C16.283 39.072 15.383 38.172 14.273 38.172C14.009 38.1719 13.7475 38.2238 13.5035 38.3247C13.2595 38.4257 13.0378 38.5737 12.8511 38.7604C12.6643 38.947 12.5162 39.1686 12.4151 39.4126C12.3141 39.6565 12.262 39.918 12.262 40.182M12.262 43.5V38.172M17.738 14.82C16.4509 14.82 15.2166 15.3313 14.3064 16.2414C13.3963 17.1515 12.885 18.3859 12.885 19.673C12.885 20.9601 13.3963 22.1945 14.3064 23.1046C15.2166 24.0147 16.4509 24.526 17.738 24.526V14.82ZM30.262 24.526C31.5491 24.526 32.7835 24.0147 33.6936 23.1046C34.6037 22.1945 35.115 20.9601 35.115 19.673C35.115 18.3859 34.6037 17.1515 33.6936 16.2414C32.7835 15.3313 31.5491 14.82 30.262 14.82V24.526ZM35.116 13.41C35.116 12.7726 34.9905 12.1415 34.7465 11.5526C34.5026 10.9637 34.145 10.4287 33.6943 9.97806C33.2435 9.5274 32.7084 9.16995 32.1195 8.92613C31.5306 8.6823 30.8994 8.55687 30.262 8.557V13.411L35.116 13.41ZM30.262 30.789C30.8995 30.7891 31.5308 30.6637 32.1197 30.4198C32.7087 30.1759 33.2439 29.8184 33.6946 29.3676C34.1454 28.9168 34.5029 28.3817 34.7468 27.7927C34.9907 27.2037 35.1162 26.5725 35.116 25.935H30.262V30.789ZM12.884 13.41C12.884 12.7726 13.0096 12.1415 13.2535 11.5526C13.4975 10.9637 13.855 10.4287 14.3058 9.97806C14.7565 9.5274 15.2916 9.16995 15.8806 8.92613C16.4695 8.6823 17.1006 8.55687 17.738 8.557V13.411L12.884 13.41ZM17.738 30.789C17.1006 30.7891 16.4693 30.6637 15.8803 30.4198C15.2914 30.1759 14.7562 29.8184 14.3054 29.3676C13.8547 28.9168 13.4971 28.3817 13.2532 27.7927C13.0094 27.2037 12.8839 26.5725 12.884 25.935H17.738V30.789ZM28.853 13.41C28.853 12.1229 28.3417 10.8885 27.4316 9.97841C26.5215 9.0683 25.2871 8.557 24 8.557C22.7129 8.557 21.4786 9.0683 20.5684 9.97841C19.6583 10.8885 19.147 12.1229 19.147 13.41H28.853ZM19.147 25.935C19.147 27.2221 19.6583 28.4565 20.5684 29.3666C21.4786 30.2767 22.7129 30.788 24 30.788C25.2871 30.788 26.5215 30.2767 27.4316 29.3666C28.3417 28.4565 28.853 27.2221 28.853 25.935H19.147ZM28.853 32.041H19.147C20.117 33.716 21.925 34.846 24 34.846C26.075 34.846 27.883 33.716 28.853 32.041ZM19.147 7.305H28.853C27.883 5.63 26.075 4.5 24 4.5C21.925 4.5 20.117 5.63 19.147 7.305ZM36.368 14.82V24.526C38.043 23.556 39.173 21.748 39.173 19.673C39.173 17.598 38.043 15.79 36.368 14.82ZM11.632 24.526V14.82C9.95703 15.79 8.82703 17.598 8.82703 19.673C8.82703 21.748 9.95703 23.556 11.632 24.526Z" stroke="#FBFADA" stroke-linecap="round" stroke-linejoin="round"/>
</svg>
